<svg width="24" height="24" viewBox="0 0 24 24" fill="none" xmlns="http://www.w3.org/2000/svg">
    <path d="M8 4C8 4 6 7 6 9C6 11 7 12 8 12C9 12 10 11 10 9C10 7 8 4 8 4Z" stroke="currentColor" stroke-width="2"/>
    <path d="M16 8C16 8 14 11 14 13C14 15 15 16 16 16C17 16 18 15 18 13C18 11 16 8 16 8Z" stroke="currentColor" stroke-width="2"/>
    <path d="M12 6C12 6 10 9 10 11C10 13 11 14 12 14C13 14 14 13 14 11C14 9 12 6 12 6Z" stroke="currentColor" stroke-width="2"/>
    <path d="M8 12V20M12 14V20M16 16V20" stroke="currentColor" stroke-width="2"/>
</svg>