<?xml version="1.0" encoding="UTF-8"?>
<svg id="Layer_1" xmlns="http://www.w3.org/2000/svg" version="1.1" viewBox="0 0 24 24">
  <!-- Generator: Adobe Illustrator 29.0.0, SVG Export Plug-In . SVG Version: 2.1.0 Build 186)  -->
  <defs>
    <style>
      .st0 {
        stroke-width: 2px;
      }

      .st0, .st1, .st2 {
        stroke: #000;
      }

      .st0, .st2 {
        fill: none;
      }
    </style>
  </defs>
  <path class="st0" d="M7,21h10l1-7.6H6l1,7.6Z"/>
  <path class="st2" d="M10.9,11.6c0,0-1.1-2.3-1.1-2.3.2-.1.5-.3.8-.5.3-.3.5-.5.6-.7,0-.1.2-.4.2-.7,0-.3,0-.6-.1-.7,0-.2-.3-.6-.8-1-.6-.4-1.2-.4-1.4-.4-.4,0-.8,0-1.3.2-.5.1-.9.2-1.2.4-.4.2-.8.4-1.2.6-.1,0-.7.4-1,1.1-.2.5,0,1,0,1.1,0,.2.3.6.8,1,.5.4,1.1.5,1.3.5.5,0,1,0,1.4,0l2.9,1.6Z"/>
  <path class="st1" d="M12.6,9.4s1.4-2.2,1.4-2.2c-.2-.1-.5-.3-.7-.6-.3-.3-.4-.6-.5-.8,0-.1-.1-.4,0-.7,0-.3.1-.6.2-.7.1-.2.4-.6.9-.9.6-.3,1.2-.3,1.4-.2.4,0,.8.2,1.3.4.5.2.8.4,1.2.5.4.2.7.5,1.1.7.1,0,.7.5.8,1.3,0,.5,0,1-.2,1.1-.1.2-.4.6-.9.9-.6.3-1.1.3-1.4.3-.5,0-.9-.1-1.4-.2l-3.1,1.2Z"/>
</svg>