<?xml version="1.0" encoding="UTF-8"?>
<svg id="Layer_1" xmlns="http://www.w3.org/2000/svg" version="1.1" viewBox="0 0 24 24">
  <!-- Generator: Adobe Illustrator 29.0.0, SVG Export Plug-In . SVG Version: 2.1.0 Build 186)  -->
  <defs>
    <style>
      .st0 {
        fill: none;
        stroke: #000;
        stroke-linejoin: round;
        stroke-width: 2px;
      }
    </style>
  </defs>
  <path class="st0" d="M12,7.5l2.5,4.2c1.5,2.7,2.1,6.1.5,7.9s-4.3,2.2-5.9,0-.7-5.2.6-7.7l2.4-4.4Z"/>
  <path class="st0" d="M17.3,1.5l1.4,2.4c.8,1.5,1.2,3.5.3,4.5s-2.4,1.3-3.4,0-.4-3,.3-4.4l1.4-2.5Z"/>
  <path class="st0" d="M8.8,1.5l.8,1.4c.5.9.7,2.1.2,2.7s-1.5.8-2,0-.2-1.8.2-2.6l.8-1.5Z"/>
</svg>